# xmcd
#
# Track frame offsets:
#	150
#	19014
#	55726
#	78574
#	101570
#	129179
#	149056
#	167190
#	190840
#	228541
#	248036
#	276918
#
# Disc length: 4111 seconds
# Revision: 0
# Processed by: cddbd v1.5.2PL0 Copyright (c) Steve Scherf et al.
# Submitted via: dBpowerAMP V12.0
#
DISCID=a5100d0c
DTITLE=Stoney Curtis Band - Cosmic Connection
DYEAR=2011
DGENRE=Blues
TTITLE0=Blues And Rock And Roll
TTITLE1=When The Sweet Turns To Sour
TTITLE2=Mouthful Of Honey
TTITLE3=Headin' For The City
TTITLE4=Soul Flower
TTITLE5=Good Lovin' Done Right
TTITLE6=Big Beautiful Women
TTITLE7=Mary Jayne
TTITLE8=Infatuation Blues
TTITLE9=Before The Devil Knows You're Dead
TTITLE10=Rise Up
TTITLE11=The Letter
EXTD=
EXTT0=
EXTT1=
EXTT2=
EXTT3=
EXTT4=
EXTT5=
EXTT6=
EXTT7=
EXTT8=
EXTT9=
EXTT10=
EXTT11=
PLAYORDER=
